<?xml version="1.0" encoding="UTF-8"?>
<svg id="Layer_1" data-name="Layer 1" xmlns="http://www.w3.org/2000/svg" version="1.1" viewBox="0 0 142.3 42.7">
  <defs>
    <style>
      .cls-1, .cls-2 {
        fill: #0c143d;
        stroke-width: 0px;
      }

      .cls-2 {
        opacity: 1;
      }

      .cls-3 {
        fill: none;
        stroke: #0c143d;
        stroke-miterlimit: 10;
        stroke-width: 2.5px;
      }
    </style>
  </defs>
  <rect class="cls-1" x="60" y="12.4" width="2.5" height="17.8" rx="1.2" ry="1.2"/>
  <path class="cls-1" d="M54.4,28.1c.6.4.7,1.2.3,1.7-.4.6-1.2.7-1.7.3l-10.9-7.6h0v6.5c0,.7-.6,1.2-1.2,1.2s-1.2-.6-1.2-1.2v-9h10.5c3.2,0,3.5-4.9,0-5.1h-9.3c-.7,0-1.2-.6-1.2-1.2s.6-1.2,1.2-1.2h9.3c2.7.1,5,2,5.1,5.1,0,2.1-2,5.1-5.1,5h-3.7l7.9,5.6Z"/>
  <path class="cls-1" d="M35.5,17.5c0,2.1-2,5.1-5.1,5h-8v6.5c0,.7-.6,1.2-1.2,1.2s-1.2-.6-1.2-1.2v-9h10.5c3.2,0,3.5-4.9,0-5.1h-9.4c-.7,0-1.2-.6-1.2-1.2s.6-1.2,1.2-1.2h9.4c2.7.1,4.9,2,5.1,5.1Z"/>
  <path class="cls-1" d="M82.9,25.1c0,2.1-2,5.1-5.1,5h-5.3v-2.5h5.3c3.2,0,3.5-4.9,0-5.1h-5.3c-2.8-.1-5-2-5.1-5.1,0-2.1,2-5.1,5.1-5h5.3v2.5h-5.3c-3.2,0-3.5,4.9,0,5.1h5.3c2.7.1,4.9,2,5.1,5.1Z"/>
  <rect class="cls-1" x="113.8" y="17.2" width="2.5" height="12.9" rx="1.2" ry="1.2" transform="translate(.4 -2) rotate(1)"/>
  <rect class="cls-1" x="113.8" y="6.2" width="2.5" height="15" rx="1.2" ry="1.2" transform="translate(128.7 -101.4) rotate(90)"/>
  <rect class="cls-2" x="94" y="5.6" width="2.5" height="16.1" rx="1.2" ry="1.2" transform="translate(108.9 -81.6) rotate(90)"/>
  <rect class="cls-2" x="94" y="12.8" width="2.5" height="16.1" rx="1.2" ry="1.2" transform="translate(116.1 -74.4) rotate(90)"/>
  <rect class="cls-2" x="94" y="20.9" width="2.5" height="16.1" rx="1.2" ry="1.2" transform="translate(124.2 -66.3) rotate(90)"/>
  <line class="cls-3" x1="81.5" y1="24.5" x2="81.5" y2="24.5"/>
</svg>